<svg width="391" height="290" viewBox="0 0 391 290" fill="none" xmlns="http://www.w3.org/2000/svg">
<path d="M331.484 267.531V271.656H333.23V272.43H331.484V277.973H330.57V267.531H331.484ZM328.742 268.551V269.312H324.793V274.586C326.68 274.586 328.016 274.498 329.562 274.211L329.68 275.008C328.051 275.301 326.68 275.359 324.699 275.359H323.879V268.551H328.742ZM337.376 270.332C337.364 272.23 338.665 274.152 340.2 274.844L339.638 275.57C338.454 274.99 337.429 273.766 336.931 272.277C336.444 273.854 335.419 275.166 334.2 275.781L333.614 275.008C335.161 274.293 336.45 272.312 336.462 270.332V268.434H337.376V270.332ZM342.263 267.531V277.973H341.337V267.531H342.263ZM355.406 267.812V268.527H353.8V270.52H355.37V271.246H347.742V270.52H349.312V268.527H347.706V267.812H355.406ZM356.308 272.102V272.852H352.007V273.871H355.089V276.133H348.902V277.129H355.406V277.832H347.988V275.465H354.187V274.562H347.964V273.871H351.093V272.852H346.816V272.102H356.308ZM350.226 270.52H352.886V268.527H350.226V270.52ZM365.68 267.531V277.949H364.754V267.531H365.68ZM362.598 268.668C362.586 271.668 361.192 274.316 357.7 275.992L357.196 275.242C360.014 273.906 361.45 271.908 361.661 269.418H357.676V268.668H362.598Z" fill="#0077FF"/>
<path d="M323 278.916H367.016V279.73H323V278.916Z" fill="#0077FF"/>
<g filter="url(#filter0_d_194_4462)">
<rect width="284" height="85" rx="10" transform="matrix(1 0 0 -1 91 261)" fill="white" shape-rendering="crispEdges"/>
<rect x="0.5" y="-0.5" width="283" height="84" rx="9.5" transform="matrix(1 0 0 -1 91 260)" stroke="#FFE0A6" shape-rendering="crispEdges"/>
<path d="M113.713 217.609V219.592H116.488V216.953H117.555V223.201H116.488V220.467H113.713V222.572H108.066V217.609H113.713ZM109.133 218.471V221.711H112.66V218.471H109.133ZM117.555 223.816V226.729H110.773V228.082H118.02V228.943H109.707V225.908H116.488V224.678H109.68V223.816H117.555ZM126.151 218.061V218.963H121.297V221.479H125.714V222.354H121.297V225.293C123.567 225.293 125.126 225.204 126.985 224.896L127.094 225.785C125.18 226.1 123.54 226.168 121.202 226.182H120.231V218.061H126.151ZM129.501 216.953V229.107H128.421V216.953H129.501ZM142.54 226.633V227.549H131.411V226.633H142.54ZM141.474 218.184V219.072H139.546V223.324H141.447V224.199H132.423V223.324H134.324V219.072H132.396V218.184H141.474ZM135.39 223.324H138.493V219.072H135.39V223.324ZM154.5 226.701V227.604H143.371V226.701H148.375V224.404H144.766V220.658H152.039V218.744H144.738V217.855H153.092V221.533H145.832V223.516H153.379V224.404H149.428V226.701H154.5ZM158.94 220.412C158.94 222.34 159.883 224.432 161.497 225.389L160.881 226.223C159.712 225.512 158.872 224.213 158.448 222.736C157.997 224.35 157.094 225.737 155.877 226.482L155.194 225.676C156.876 224.691 157.901 222.531 157.901 220.453V218.102H158.94V220.412ZM165.749 216.953V229.107H164.71V216.953H165.749ZM163.233 217.213V228.492H162.221V222.23H160.157V221.314H162.221V217.213H163.233ZM177.325 216.967V224.213H176.259V216.967H177.325ZM173.292 224.5C175.821 224.5 177.38 225.348 177.38 226.797C177.38 228.232 175.821 229.066 173.292 229.066C170.749 229.066 169.191 228.232 169.191 226.797C169.191 225.348 170.749 224.5 173.292 224.5ZM173.292 225.348C171.405 225.361 170.243 225.881 170.243 226.797C170.243 227.686 171.405 228.219 173.292 228.219C175.165 228.219 176.327 227.686 176.327 226.797C176.327 225.881 175.165 225.361 173.292 225.348ZM171.597 218.689C171.583 220.439 172.882 221.984 174.687 222.6L174.14 223.461C172.725 222.955 171.611 221.93 171.064 220.59C170.53 222.06 169.403 223.222 167.974 223.789L167.413 222.928C169.232 222.244 170.503 220.549 170.503 218.689V217.514H171.597V218.689ZM190.324 223.365V224.24H179.25V223.365H190.324ZM189.094 227.945V228.848H180.685V225.307H181.765V227.945H189.094ZM184.787 217.391C187.398 217.377 189.08 218.279 189.08 219.797C189.08 221.314 187.398 222.217 184.787 222.217C182.148 222.217 180.48 221.314 180.48 219.797C180.48 218.279 182.148 217.377 184.787 217.391ZM184.787 218.252C182.832 218.252 181.574 218.84 181.588 219.797C181.574 220.754 182.832 221.342 184.787 221.342C186.728 221.342 187.986 220.754 187.986 219.797C187.986 218.84 186.728 218.252 184.787 218.252ZM197.851 217.896C198.965 217.903 199.867 218.553 200.394 219.674H203.593V216.953H204.659V229.135H203.593V224.418H200.476C199.963 225.648 199.026 226.359 197.851 226.359C196.06 226.359 194.802 224.719 194.802 222.135C194.802 219.551 196.06 217.91 197.851 217.896ZM197.851 218.854C196.648 218.867 195.827 220.152 195.827 222.135C195.827 224.117 196.648 225.402 197.851 225.402C199.04 225.402 199.874 224.117 199.874 222.135C199.874 220.152 199.04 218.867 197.851 218.854ZM200.708 220.576C200.817 221.048 200.886 221.567 200.886 222.135C200.886 222.634 200.831 223.105 200.749 223.529H203.593V220.576H200.708ZM216.605 216.953V229.135H215.539V222.531H213.174V221.629H215.539V216.953H216.605ZM212.435 218.088V222.34H208.074V225.293C210.166 225.293 211.683 225.231 213.461 224.896L213.543 225.799C211.711 226.127 210.138 226.195 207.937 226.209H207.008V221.451H211.396V218.977H206.967V218.088H212.435ZM232.253 216.953V229.107H231.2V222.75H229.519V228.506H228.493V217.281H229.519V221.861H231.2V216.953H232.253ZM227.112 218.539C227.099 221.629 226.019 224.555 222.519 226.496L221.89 225.744C224.713 224.172 225.882 221.943 226.06 219.428H222.355V218.539H227.112ZM237.814 217.842C239.728 217.842 241.082 219.004 241.082 220.699C241.082 222.395 239.728 223.557 237.814 223.557C235.9 223.557 234.519 222.395 234.533 220.699C234.519 219.004 235.9 217.842 237.814 217.842ZM237.814 218.785C236.515 218.785 235.572 219.564 235.586 220.699C235.572 221.834 236.515 222.613 237.814 222.613C239.099 222.613 240.029 221.834 240.029 220.699C240.029 219.564 239.099 218.785 237.814 218.785ZM243.802 216.953V229.135H242.736V216.953H243.802ZM233.904 225.539C236.146 225.539 239.236 225.525 241.929 225.129L242.011 225.922C239.236 226.441 236.242 226.455 234.054 226.455L233.904 225.539ZM256.524 221.219C256.237 219.852 255.061 219.113 253.763 219.113C251.972 219.113 250.577 220.494 250.577 223.051C250.577 225.607 251.972 226.988 253.763 226.988C255.061 226.988 256.224 226.25 256.524 224.896H257.755C257.399 226.92 255.772 228.137 253.763 228.137C251.22 228.137 249.388 226.182 249.388 223.051C249.388 219.92 251.22 217.965 253.763 217.965C255.759 217.965 257.386 219.168 257.755 221.219H256.524ZM259.337 228V218.102H262.701C265.025 218.102 266.078 219.482 266.078 221.246C266.078 222.996 265.025 224.404 262.714 224.404H260.568V228H259.337ZM260.568 223.311H262.66C264.232 223.311 264.861 222.422 264.861 221.246C264.861 220.057 264.232 219.195 262.646 219.195H260.568V223.311ZM274.141 218.102H275.371V224.65C275.371 226.688 273.854 228.178 271.516 228.178C269.178 228.178 267.66 226.688 267.66 224.65V218.102H268.891V224.555C268.891 225.99 269.889 227.029 271.516 227.029C273.156 227.029 274.141 225.99 274.141 224.555V218.102ZM290.431 222.6V223.475H286.029V218.115H290.281V218.99H287.109V222.6H290.431ZM291.32 226.66V227.549H280.191V226.66H285.181V224.09H286.234V226.66H291.32ZM285.291 218.115V219.004H282.228V222.586C283.253 222.579 284.272 222.497 285.4 222.244L285.496 223.146C284.169 223.447 283.048 223.488 281.832 223.475H281.162V218.115H285.291ZM301.981 220.645V221.506H293.654V217.404H294.721V220.645H301.981ZM303.266 223.16V224.035H292.137V223.16H303.266ZM302.049 227.918V228.807H293.586V225.279H294.652V227.918H302.049ZM317.205 218.143V219.318C317.191 220.795 317.205 222.463 316.699 224.938L315.646 224.814C315.885 223.714 316.008 222.75 316.083 221.889L308.646 222.34L308.468 221.396L316.124 221.082C316.152 220.439 316.152 219.858 316.152 219.318V219.031H308.824V218.143H317.205ZM318.558 226.537V227.453H307.484V226.537H311.831V223.393H312.884V226.537H318.558ZM322.711 217.896C324.365 217.91 325.555 219.325 325.732 221.602H328.453V216.953H329.52V229.135H328.453V222.49H325.746C325.616 224.869 324.406 226.359 322.711 226.359C320.92 226.359 319.662 224.719 319.662 222.135C319.662 219.551 320.92 217.91 322.711 217.896ZM322.711 218.854C321.508 218.867 320.688 220.152 320.688 222.135C320.688 224.117 321.508 225.402 322.711 225.402C323.9 225.402 324.734 224.117 324.734 222.135C324.734 220.152 323.9 218.867 322.711 218.854ZM341.821 216.953V229.107H340.782V216.953H341.821ZM339.374 217.213V228.492H338.348V222.586H336.79C336.674 224.951 335.669 226.428 334.165 226.428C332.579 226.428 331.553 224.787 331.553 222.203C331.553 219.619 332.579 217.979 334.165 217.979C335.641 217.979 336.639 219.407 336.776 221.697H338.348V217.213H339.374ZM334.165 218.99C333.18 218.99 332.551 220.221 332.565 222.203C332.551 224.172 333.18 225.416 334.165 225.402C335.149 225.416 335.778 224.172 335.778 222.203C335.778 220.221 335.149 218.99 334.165 218.99ZM347.642 220.221C347.642 222.422 349.05 224.637 350.814 225.443L350.171 226.318C348.79 225.607 347.649 224.151 347.109 222.422C346.569 224.24 345.427 225.799 344.046 226.537L343.349 225.676C345.126 224.801 346.548 222.463 346.548 220.221V218.006H347.642V220.221ZM353.439 216.953V229.135H352.372V221.984H349.488V221.109H352.372V216.953H353.439ZM110.76 234.896C111.874 234.903 112.776 235.553 113.303 236.674H116.502V233.953H117.568V246.135H116.502V241.418H113.385C112.872 242.648 111.936 243.359 110.76 243.359C108.969 243.359 107.711 241.719 107.711 239.135C107.711 236.551 108.969 234.91 110.76 234.896ZM110.76 235.854C109.557 235.867 108.736 237.152 108.736 239.135C108.736 241.117 109.557 242.402 110.76 242.402C111.949 242.402 112.783 241.117 112.783 239.135C112.783 237.152 111.949 235.867 110.76 235.854ZM113.617 237.576C113.727 238.048 113.795 238.567 113.795 239.135C113.795 239.634 113.74 240.105 113.658 240.529H116.502V237.576H113.617ZM129.514 233.953V246.135H128.448V239.531H126.083V238.629H128.448V233.953H129.514ZM125.344 235.088V239.34H120.983V242.293C123.075 242.293 124.592 242.231 126.37 241.896L126.452 242.799C124.62 243.127 123.047 243.195 120.846 243.209H119.917V238.451H124.305V235.977H119.876V235.088H125.344ZM145.162 233.953V246.107H144.109V239.75H142.428V245.506H141.402V234.281H142.428V238.861H144.109V233.953H145.162ZM140.021 235.539C140.008 238.629 138.928 241.555 135.428 243.496L134.799 242.744C137.622 241.172 138.791 238.943 138.969 236.428H135.264V235.539H140.021ZM150.723 234.842C152.637 234.842 153.991 236.004 153.991 237.699C153.991 239.395 152.637 240.557 150.723 240.557C148.809 240.557 147.428 239.395 147.442 237.699C147.428 236.004 148.809 234.842 150.723 234.842ZM150.723 235.785C149.424 235.785 148.481 236.564 148.495 237.699C148.481 238.834 149.424 239.613 150.723 239.613C152.008 239.613 152.938 238.834 152.938 237.699C152.938 236.564 152.008 235.785 150.723 235.785ZM156.711 233.953V246.135H155.645V233.953H156.711ZM146.813 242.539C149.055 242.539 152.145 242.525 154.838 242.129L154.92 242.922C152.145 243.441 149.151 243.455 146.963 243.455L146.813 242.539ZM173.207 243.633V244.549H162.078V243.633H173.207ZM172.14 235.184V236.072H170.213V240.324H172.113V241.199H163.09V240.324H164.99V236.072H163.062V235.184H172.14ZM166.056 240.324H169.16V236.072H166.056V240.324ZM185.166 243.701V244.604H174.038V243.701H179.041V241.404H175.432V237.658H182.706V235.744H175.405V234.855H183.758V238.533H176.499V240.516H184.045V241.404H180.094V243.701H185.166ZM189.607 237.412C189.607 239.34 190.55 241.432 192.163 242.389L191.548 243.223C190.379 242.512 189.538 241.213 189.114 239.736C188.663 241.35 187.761 242.737 186.544 243.482L185.86 242.676C187.542 241.691 188.567 239.531 188.567 237.453V235.102H189.607V237.412ZM196.415 233.953V246.107H195.376V233.953H196.415ZM193.9 234.213V245.492H192.888V239.23H190.823V238.314H192.888V234.213H193.9ZM204.013 235.744C204.013 237.822 206.392 239.682 208.511 240.078L208.019 240.98C206.187 240.557 204.253 239.251 203.467 237.453C202.68 239.244 200.753 240.55 198.914 240.98L198.422 240.078C200.527 239.668 202.892 237.836 202.892 235.744V234.814H204.013V235.744ZM209.086 243.564V244.453H197.957V243.564H209.086ZM221.032 239.6V240.447H209.903V239.6H221.032ZM219.637 241.418V244.002H212.336V245.164H220.034V245.943H211.256V243.264H218.571V242.225H211.243V241.418H219.637ZM219.596 234.322V236.838H212.418V237.904H219.815V238.684H211.352V236.1H218.516V235.102H211.311V234.322H219.596ZM235.271 233.953V240.256H234.218V233.953H235.271ZM235.285 240.871V243.783H228.463V245.096H235.722V245.971H227.41V242.949H234.218V241.732H227.382V240.871H235.285ZM229.556 235.238C229.543 236.961 230.855 238.479 232.66 239.066L232.127 239.9C230.705 239.415 229.57 238.396 229.023 237.084C228.476 238.499 227.335 239.613 225.892 240.133L225.332 239.285C227.164 238.643 228.463 237.029 228.463 235.238V234.309H229.556V235.238ZM247.532 233.953V241.65H246.506V238.164H244.879V241.213H243.867V234.199H244.879V237.275H246.506V233.953H247.532ZM243.375 235.416V236.277H237.141V235.416H239.739V234.049H240.805V235.416H243.375ZM240.272 236.934C241.817 236.934 242.869 237.74 242.883 239.012C242.869 240.256 241.817 241.076 240.272 241.076C238.741 241.076 237.66 240.256 237.674 239.012C237.66 237.74 238.741 236.934 240.272 236.934ZM240.272 237.727C239.301 237.727 238.631 238.246 238.631 239.012C238.631 239.764 239.301 240.27 240.272 240.27C241.242 240.27 241.912 239.764 241.912 239.012C241.912 238.246 241.242 237.727 240.272 237.727ZM243.512 241.855C246.069 241.855 247.6 242.621 247.6 243.988C247.6 245.314 246.069 246.08 243.512 246.08C240.955 246.08 239.424 245.314 239.438 243.988C239.424 242.621 240.955 241.855 243.512 241.855ZM243.512 242.703C241.625 242.689 240.491 243.154 240.504 243.988C240.491 244.781 241.625 245.246 243.512 245.246C245.399 245.246 246.52 244.781 246.534 243.988C246.52 243.154 245.399 242.689 243.512 242.703ZM258.575 233.953V238.971H260.612V239.859H258.575V246.107H257.509V233.953H258.575ZM256.333 235.908V236.797H249.101V235.908H252.231V234.104H253.298V235.908H256.333ZM252.778 237.809C254.501 237.809 255.745 238.957 255.759 240.598C255.745 242.238 254.501 243.387 252.778 243.387C251.042 243.387 249.784 242.238 249.798 240.598C249.784 238.957 251.042 237.809 252.778 237.809ZM252.778 238.711C251.644 238.711 250.81 239.504 250.823 240.598C250.81 241.705 251.644 242.484 252.778 242.471C253.899 242.484 254.72 241.705 254.733 240.598C254.72 239.504 253.899 238.711 252.778 238.711ZM270.959 237.645V238.506H262.632V234.404H263.699V237.645H270.959ZM272.244 240.16V241.035H261.115V240.16H272.244ZM271.027 244.918V245.807H262.564V242.279H263.63V244.918H271.027ZM282.067 241.596C284.569 241.596 286.073 242.416 286.073 243.838C286.073 245.273 284.569 246.094 282.067 246.107C279.565 246.094 278.034 245.273 278.034 243.838C278.034 242.416 279.565 241.596 282.067 241.596ZM282.067 242.443C280.235 242.457 279.1 242.963 279.114 243.838C279.1 244.713 280.235 245.232 282.067 245.232C283.913 245.232 285.034 244.713 285.034 243.838C285.034 242.963 283.913 242.457 282.067 242.443ZM285.964 233.953V237.016H287.796V237.932H285.964V241.268H284.897V233.953H285.964ZM278.034 234.719V236.578H281.575V234.719H282.641V240.324H276.981V234.719H278.034ZM278.034 239.449H281.575V237.426H278.034V239.449ZM292.728 235.717C292.714 237.494 294 239.066 295.804 239.695L295.257 240.543C293.849 240.03 292.735 238.978 292.195 237.631C291.655 239.073 290.527 240.208 289.105 240.762L288.544 239.914C290.363 239.244 291.634 237.549 291.634 235.717V234.555H292.728V235.717ZM298.457 241.883V246.107H297.39V242.771H290.281V241.883H298.457ZM298.457 233.953V241.281H297.39V233.953H298.457ZM310.402 233.953V246.135H309.322V233.953H310.402ZM303.936 234.896C305.74 234.91 307.039 236.551 307.039 239.135C307.039 241.719 305.74 243.359 303.936 243.359C302.117 243.359 300.832 241.719 300.832 239.135C300.832 236.551 302.117 234.91 303.936 234.896ZM303.936 235.854C302.719 235.867 301.871 237.152 301.871 239.135C301.871 241.117 302.719 242.402 303.936 242.402C305.152 242.402 306 241.117 306 239.135C306 237.152 305.152 235.867 303.936 235.854ZM321.747 233.953V238.766H323.784V239.668H321.747V246.135H320.68V233.953H321.747ZM318.548 235.143V236.031H313.94V242.184C316.141 242.184 317.7 242.081 319.505 241.746L319.641 242.676C317.741 243.018 316.141 243.086 313.831 243.086H312.874V235.143H318.548ZM325.585 245.082C325.107 245.082 324.697 244.686 324.71 244.193C324.697 243.715 325.107 243.318 325.585 243.318C326.064 243.318 326.46 243.715 326.46 244.193C326.46 244.686 326.064 245.082 325.585 245.082Z" fill="#434343"/>
<path d="M119.188 190.328V198.656H117.703V195.109H115.094V193.891H117.703V190.328H119.188ZM114.5 199.047C117.438 199.047 119.234 200.016 119.234 201.688C119.234 203.359 117.438 204.312 114.5 204.328C111.562 204.312 109.75 203.359 109.766 201.688C109.75 200.016 111.562 199.047 114.5 199.047ZM114.5 200.203C112.453 200.203 111.234 200.734 111.234 201.688C111.234 202.625 112.453 203.172 114.5 203.156C116.547 203.172 117.766 202.625 117.766 201.688C117.766 200.734 116.547 200.203 114.5 200.203ZM112.531 192.797C112.531 194.578 113.797 196.297 115.906 197.016L115.141 198.188C113.57 197.641 112.414 196.523 111.812 195.141C111.195 196.711 109.969 197.969 108.297 198.578L107.516 197.391C109.688 196.641 111.016 194.75 111.016 192.812V192.5H107.984V191.297H115.531V192.5H112.531V192.797ZM132.184 190.328V193.531H134.215V194.766H132.184V197.797H130.699V190.328H132.184ZM128.028 191.219V192.438H123.278V196.156C126.004 196.148 127.543 196.062 129.293 195.688L129.465 196.891C127.574 197.281 125.918 197.375 122.918 197.375H121.809V191.219H128.028ZM124.684 198.531V200.125H130.699V198.531H132.184V204.109H123.215V198.531H124.684ZM124.684 202.906H130.699V201.297H124.684V202.906ZM143.379 191.688V203H141.645V193.406H141.583L138.879 195.172V193.531L141.692 191.688H143.379ZM154.856 196.625V198.062H149.841V196.625H154.856ZM164.458 203.156C162.114 203.156 160.443 201.891 160.38 200.047H162.13C162.193 201.047 163.177 201.672 164.443 201.672C165.802 201.672 166.802 200.922 166.802 199.828C166.802 198.719 165.864 197.906 164.255 197.906H163.286V196.5H164.255C165.536 196.5 166.443 195.781 166.443 194.703C166.443 193.672 165.677 192.969 164.474 192.969C163.333 192.969 162.333 193.594 162.286 194.625H160.63C160.677 192.781 162.38 191.531 164.489 191.531C166.708 191.531 168.114 192.938 168.099 194.609C168.114 195.891 167.318 196.828 166.099 197.125V197.203C167.646 197.422 168.536 198.453 168.536 199.891C168.536 201.781 166.802 203.156 164.458 203.156ZM181.454 190.344V200.688H179.97V195.406H176.908V198.359H170.454V191.266H171.939V193.641H175.439V191.266H176.908V194.203H179.97V190.344H181.454ZM181.767 202.828V204.031H172.314V199.672H173.814V202.828H181.767ZM171.939 197.156H175.439V194.781H171.939V197.156Z" fill="#434343"/>
</g>
<g filter="url(#filter1_d_194_4462)">
<rect width="284" height="158" rx="10" transform="matrix(1 0 0 -1 16 160)" fill="#FFE0A6"/>
<rect x="32.5" y="100.5" width="251" height="47" rx="9.5" fill="white"/>
<rect x="32.5" y="100.5" width="251" height="47" rx="9.5" stroke="#434343"/>
<path d="M146.352 117.496V125.406H145.238V117.496H146.352ZM146.668 126.871V127.773H139.484V124.738H140.609V126.871H146.668ZM144.207 118.738V119.629H137.785V118.738H140.434V117.484H141.559V118.738H144.207ZM140.996 120.133C142.531 120.133 143.598 120.918 143.598 122.113C143.598 123.32 142.531 124.082 140.996 124.082C139.461 124.082 138.395 123.32 138.406 122.113C138.395 120.918 139.461 120.133 140.996 120.133ZM140.996 121C140.07 121.012 139.461 121.422 139.473 122.113C139.461 122.793 140.07 123.215 140.996 123.215C141.91 123.215 142.531 122.793 142.543 122.113C142.531 121.422 141.91 121.012 140.996 121ZM156.535 123.086V123.977H149.223V118.363H156.43V119.266H150.348V120.684H156.207V121.562H150.348V123.086H156.535ZM157.625 125.758V126.672H148.016V125.758H157.625ZM167.996 125.77V126.695H158.387V125.77H162.617V123.613H159.488V118.211H160.602V120.016H165.758V118.211H166.859V123.613H163.719V125.77H167.996ZM160.602 122.711H165.758V120.918H160.602V122.711ZM177.488 117.496V127.996H176.363V117.496H177.488ZM174.359 118.621C174.359 121.691 173.047 124.363 169.449 126.086L168.863 125.184C171.658 123.854 173.018 121.961 173.234 119.512H169.367V118.621H174.359Z" fill="#434343"/>
<path d="M41.8984 42.9531V47.7656H43.9355V48.668H41.8984V55.1348H40.832V42.9531H41.8984ZM38.6992 44.1426V45.0312H34.0918V51.1836C36.293 51.1836 37.8516 51.0811 39.6562 50.7461L39.793 51.6758C37.8926 52.0176 36.293 52.0859 33.9824 52.0859H33.0254V44.1426H38.6992ZM49.9889 43.2266C52.6276 43.2266 54.2819 44.0742 54.2819 45.5371C54.2819 46.9727 52.6276 47.8066 49.9889 47.8066C47.3502 47.8066 45.6823 46.9727 45.6823 45.5371C45.6823 44.0742 47.3502 43.2266 49.9889 43.2266ZM49.9889 44.0879C48.0202 44.0879 46.776 44.6348 46.7897 45.5371C46.776 46.4258 48.0202 46.9453 49.9889 46.959C51.9303 46.9453 53.1881 46.4258 53.1881 45.5371C53.1881 44.6348 51.9303 44.0879 49.9889 44.0879ZM54.1725 50.9512V54.9434H45.8053V50.9512H54.1725ZM46.8717 51.8125V54.0684H53.1198V51.8125H46.8717ZM55.526 48.8594V49.748H44.4518V48.8594H55.526ZM70.8593 48.6406V49.5293H65.8417V50.8281C68.1386 50.9238 69.4921 51.6758 69.5058 52.9609C69.4921 54.3145 67.9335 55.0801 65.3222 55.0801C62.6835 55.0801 61.1249 54.3145 61.1249 52.9609C61.1249 51.6758 62.4716 50.9238 64.789 50.8281V49.5293H59.7851V48.6406H70.8593ZM65.3222 51.6484C63.3671 51.6621 62.205 52.1406 62.2187 52.9609C62.205 53.7676 63.3671 54.2461 65.3222 54.2461C67.2499 54.2461 68.4257 53.7676 68.4257 52.9609C68.4257 52.1406 67.2499 51.6621 65.3222 51.6484ZM69.8749 43.5273V44.4023H66.0195C66.0878 45.7695 68.0976 46.8291 70.2441 47.0547L69.8476 47.9023C67.8583 47.6631 65.9921 46.7744 65.3222 45.4141C64.6591 46.7744 62.7997 47.6631 60.7968 47.9023L60.414 47.0547C62.5195 46.8291 64.5429 45.7695 64.6249 44.4023H60.7968V43.5273H69.8749ZM86.2336 49.1328V50.0215H81.298V52.5098H80.218V50.0215H75.1047V49.1328H86.2336ZM84.9895 53.9316V54.8477H76.5402V51.293H77.6203V53.9316H84.9895ZM80.6555 43.2676C83.2531 43.2812 84.9348 44.2109 84.9348 45.7148C84.9348 47.2188 83.2531 48.1348 80.6555 48.1348C78.0578 48.1348 76.3625 47.2188 76.3625 45.7148C76.3625 44.2109 78.0578 43.2812 80.6555 43.2676ZM80.6555 44.1426C78.7687 44.1426 77.4973 44.7441 77.5109 45.7148C77.4973 46.6582 78.7687 47.2598 80.6555 47.2598C82.5422 47.2598 83.8 46.6582 83.8 45.7148C83.8 44.7441 82.5422 44.1426 80.6555 44.1426ZM90.4276 43.6914C91.453 43.6846 92.328 44.0674 92.8885 44.7168H96.0741V42.9531H97.1541V50.1582H96.0741V48.4219H92.9022C92.328 49.0713 91.453 49.4541 90.4276 49.4473C88.6092 49.4609 87.2694 48.2715 87.2694 46.5762C87.2694 44.8672 88.6092 43.6777 90.4276 43.6914ZM90.4276 44.6211C89.1834 44.6074 88.2948 45.4277 88.2948 46.5762C88.2948 47.7109 89.1834 48.5312 90.4276 48.5312C91.6307 48.5312 92.533 47.7109 92.533 46.5762C92.533 45.4277 91.6307 44.6074 90.4276 44.6211ZM93.1209 50.4453C95.6366 50.4453 97.1952 51.293 97.1952 52.7559C97.1952 54.2324 95.6366 55.0801 93.1209 55.0801C90.5916 55.0801 89.0467 54.2324 89.0467 52.7559C89.0467 51.293 90.5916 50.4453 93.1209 50.4453ZM93.1209 51.2793C91.2616 51.2793 90.0995 51.8398 90.0995 52.7559C90.0995 53.6719 91.2616 54.2188 93.1209 54.2188C94.994 54.2188 96.1424 53.6719 96.1424 52.7559C96.1424 51.8398 94.994 51.2793 93.1209 51.2793ZM93.408 45.5918C93.5106 45.8926 93.5721 46.2207 93.5721 46.5762C93.5721 46.918 93.5106 47.2393 93.408 47.5332H96.0741V45.5918H93.408ZM102.592 46.6992C102.592 48.6543 103.59 50.6504 105.245 51.5391L104.629 52.3457C103.419 51.6895 102.544 50.4316 102.1 48.9688C101.663 50.5273 100.794 51.8809 99.5844 52.6191L98.9419 51.7988C100.596 50.8418 101.567 48.709 101.581 46.6992V46.0977H99.27V45.209H101.581V43.4043H102.606V45.209H104.875V46.0977H102.592V46.6992ZM109.428 42.9531V55.1074H108.403V42.9531H109.428ZM106.967 43.2539V54.4785H105.956V48.668H104.041V47.752H105.956V43.2539H106.967ZM121.388 42.9531V55.1074H120.362V42.9531H121.388ZM118.927 43.2539V54.4785H117.915V48.2168H115.864V47.3418H117.915V43.2539H118.927ZM114.566 46.4258C114.566 48.5312 115.509 50.623 117.191 51.5938L116.534 52.3867C115.338 51.6689 114.49 50.3564 114.073 48.8047C113.629 50.4795 112.747 51.9082 111.53 52.6738L110.847 51.8672C112.542 50.8555 113.526 48.6406 113.526 46.4258V45.2773H111.189V44.3887H116.794V45.2773H114.566V46.4258ZM123.709 50.2266C123.722 47.6426 124.42 45.4961 125.677 43.6777H126.717C125.787 45.0312 124.926 47.793 124.926 50.2266C124.926 52.6602 125.787 55.4355 126.717 56.7891H125.677C124.42 54.957 123.722 52.8105 123.709 50.2266ZM136.557 49.0508C136.557 52.1816 134.711 54.1367 132.182 54.1367C129.639 54.1367 127.807 52.1816 127.807 49.0508C127.807 45.9199 129.639 43.9648 132.182 43.9648C134.711 43.9648 136.557 45.9199 136.557 49.0508ZM135.368 49.0508C135.368 46.4941 133.973 45.1133 132.182 45.1133C130.391 45.1133 128.996 46.4941 128.996 49.0508C128.996 51.6074 130.391 52.9883 132.182 52.9883C133.973 52.9883 135.368 51.6074 135.368 49.0508ZM143.622 46.5898C143.513 45.6191 142.624 45.0586 141.435 45.0586C140.122 45.0586 139.261 45.7422 139.261 46.6855C139.261 47.7246 140.423 48.1074 141.175 48.2988L142.159 48.5723C143.226 48.8457 144.962 49.4609 144.962 51.3066C144.962 52.9199 143.663 54.1777 141.366 54.1777C139.233 54.1777 137.907 53.0703 137.798 51.4297H139.056C139.165 52.5371 140.19 53.0566 141.366 53.0566C142.733 53.0566 143.759 52.3594 143.759 51.2793C143.759 50.3223 142.843 49.9531 141.804 49.6523L140.587 49.3242C139.028 48.873 138.071 48.0801 138.071 46.7402C138.071 45.0723 139.562 43.9648 141.476 43.9648C143.39 43.9648 144.771 45.0859 144.825 46.5898H143.622ZM149.019 50.2266C149.006 52.8105 148.308 54.957 147.05 56.7891H146.011C146.941 55.4355 147.802 52.6602 147.802 50.2266C147.802 47.793 146.941 45.0312 146.011 43.6777H147.05C148.308 45.4961 149.006 47.6426 149.019 50.2266ZM161.034 42.9531V55.1074H159.994V42.9531H161.034ZM158.586 43.2129V54.4922H157.561V48.5859H156.002C155.886 50.9512 154.881 52.4277 153.377 52.4277C151.791 52.4277 150.766 50.7871 150.766 48.2031C150.766 45.6191 151.791 43.9785 153.377 43.9785C154.854 43.9785 155.852 45.4072 155.989 47.6973H157.561V43.2129H158.586ZM153.377 44.9902C152.393 44.9902 151.764 46.2207 151.778 48.2031C151.764 50.1719 152.393 51.416 153.377 51.4023C154.362 51.416 154.991 50.1719 154.991 48.2031C154.991 46.2207 154.362 44.9902 153.377 44.9902ZM166.854 46.2207C166.854 48.4219 168.263 50.6367 170.026 51.4434L169.384 52.3184C168.003 51.6074 166.861 50.1514 166.321 48.4219C165.781 50.2402 164.64 51.7988 163.259 52.5371L162.561 51.6758C164.339 50.8008 165.761 48.4629 165.761 46.2207V44.0059H166.854V46.2207ZM172.651 42.9531V55.1348H171.585V47.9844H168.7V47.1094H171.585V42.9531H172.651ZM184.129 43.6094V45.5918H186.905V42.9531H187.971V49.2012H186.905V46.4668H184.129V48.5723H178.483V43.6094H184.129ZM179.549 44.4707V47.7109H183.076V44.4707H179.549ZM187.971 49.8164V52.7285H181.19V54.082H188.436V54.9434H180.123V51.9082H186.905V50.6777H180.096V49.8164H187.971ZM196.567 44.0605V44.9629H191.714V47.4785H196.13V48.3535H191.714V51.293C193.983 51.293 195.542 51.2041 197.401 50.8965L197.511 51.7852C195.597 52.0996 193.956 52.168 191.618 52.1816H190.647V44.0605H196.567ZM199.917 42.9531V55.1074H198.837V42.9531H199.917ZM212.957 52.6328V53.5488H201.828V52.6328H212.957ZM211.89 44.1836V45.0723H209.962V49.3242H211.863V50.1992H202.839V49.3242H204.74V45.0723H202.812V44.1836H211.89ZM205.806 49.3242H208.91V45.0723H205.806V49.3242ZM224.916 52.7012V53.6035H213.787V52.7012H218.791V50.4043H215.182V46.6582H222.455V44.7441H215.154V43.8555H223.508V47.5332H216.248V49.5156H223.795V50.4043H219.844V52.7012H224.916ZM229.356 46.4121C229.356 48.3398 230.3 50.4316 231.913 51.3887L231.298 52.2227C230.129 51.5117 229.288 50.2129 228.864 48.7363C228.413 50.3496 227.511 51.7373 226.294 52.4824L225.61 51.6758C227.292 50.6914 228.317 48.5312 228.317 46.4531V44.1016H229.356V46.4121ZM236.165 42.9531V55.1074H235.126V42.9531H236.165ZM233.649 43.2129V54.4922H232.637V48.2305H230.573V47.3145H232.637V43.2129H233.649ZM247.742 42.9668V50.2129H246.675V42.9668H247.742ZM243.708 50.5C246.238 50.5 247.796 51.3477 247.796 52.7969C247.796 54.2324 246.238 55.0664 243.708 55.0664C241.165 55.0664 239.607 54.2324 239.607 52.7969C239.607 51.3477 241.165 50.5 243.708 50.5ZM243.708 51.3477C241.822 51.3613 240.66 51.8809 240.66 52.7969C240.66 53.6855 241.822 54.2188 243.708 54.2188C245.581 54.2188 246.744 53.6855 246.744 52.7969C246.744 51.8809 245.581 51.3613 243.708 51.3477ZM242.013 44.6895C241.999 46.4395 243.298 47.9844 245.103 48.5996L244.556 49.4609C243.141 48.9551 242.027 47.9297 241.48 46.5898C240.947 48.0596 239.819 49.2217 238.39 49.7891L237.83 48.9277C239.648 48.2441 240.919 46.5488 240.919 44.6895V43.5137H242.013V44.6895ZM33.2441 67.2266C33.2578 64.6426 33.9551 62.4961 35.2129 60.6777H36.252C35.3223 62.0312 34.4609 64.793 34.4609 67.2266C34.4609 69.6602 35.3223 72.4355 36.252 73.7891H35.2129C33.9551 71.957 33.2578 69.8105 33.2441 67.2266ZM37.7252 61.1016H39.2018L42.5377 69.25H42.6608L45.9967 61.1016H47.4733V71H46.3112V63.5215H46.2155L43.1393 71H42.0455L38.9694 63.5215H38.8873V71H37.7252V61.1016ZM54.0598 67.9512V63.5762H55.222V71H54.0598V69.7422H53.9778C53.6223 70.4941 52.8977 71.0957 51.7766 71.0957C50.3684 71.0957 49.3704 70.1797 49.3704 68.293V63.5762H50.5462V68.2109C50.5462 69.2773 51.2161 69.9609 52.1595 69.9609C52.9934 69.9609 54.0598 69.332 54.0598 67.9512ZM58.1445 61.1016V71H56.9687V61.1016H58.1445ZM63.1177 63.5762V64.5605H61.5591V68.8672C61.5591 69.8242 62.024 69.9746 62.5298 69.9746C62.7486 69.9746 63.0494 69.9609 63.2271 69.9473V71.041C63.0494 71.0684 62.7486 71.0957 62.4068 71.0957C61.4224 71.0957 60.3697 70.4805 60.3697 69.168V64.5605H59.2486V63.5762H60.3697V61.7988H61.5591V63.5762H63.1177ZM64.4953 71V63.5762H65.6711V71H64.4953ZM65.0832 62.3457C64.632 62.3457 64.2629 62.0039 64.2629 61.5664C64.2629 61.1289 64.632 60.7871 65.0832 60.7871C65.5344 60.7871 65.9172 61.1289 65.9172 61.5664C65.9172 62.0039 65.5344 62.3457 65.0832 62.3457ZM67.4041 73.7891V63.5762H68.5389V64.752H68.6756C68.9217 64.3555 69.3866 63.4805 70.8221 63.4805C72.6815 63.4805 73.9803 64.957 73.9803 67.3086C73.9803 69.6602 72.6815 71.1504 70.8358 71.1504C69.4139 71.1504 68.9217 70.2754 68.6756 69.8652H68.5799V73.7891H67.4041ZM68.5526 67.2812C68.5526 68.9492 69.3045 70.0977 70.6717 70.0977C72.0799 70.0977 72.8045 68.8672 72.8045 67.2812C72.8045 65.7363 72.0936 64.5332 70.6717 64.5332C69.2772 64.5332 68.5526 65.6406 68.5526 67.2812ZM75.3716 71V63.5762H76.5063V64.7109H76.5884C76.8618 63.959 77.6274 63.4531 78.5024 63.4531C78.6802 63.4531 78.9809 63.4668 79.1177 63.4805V64.6699C79.0356 64.6426 78.7075 64.5879 78.4067 64.5879C77.3403 64.5879 76.5473 65.3262 76.5473 66.3242V71H75.3716ZM82.9152 71.1504C80.8917 71.1504 79.5245 69.6328 79.5245 67.3223C79.5245 65.0117 80.8917 63.4805 82.9152 63.4805C84.9249 63.4805 86.2784 65.0117 86.2784 67.3223C86.2784 69.6328 84.9249 71.1504 82.9152 71.1504ZM82.9152 70.1113C84.4054 70.1113 85.1027 68.7988 85.1027 67.3223C85.1027 65.8457 84.4054 64.5195 82.9152 64.5195C81.3976 64.5195 80.7003 65.8457 80.7003 67.3223C80.7003 68.7988 81.3976 70.1113 82.9152 70.1113ZM90.7185 71.1504C88.613 71.1504 87.3279 69.5508 87.3279 67.3223C87.3279 65.0664 88.6677 63.4805 90.6912 63.4805C92.2771 63.4805 93.4529 64.4102 93.6443 65.8184H92.4685C92.3045 65.1348 91.7029 64.5195 90.7185 64.5195C89.3923 64.5195 88.5037 65.6133 88.5037 67.2812C88.5037 69.0039 89.365 70.0977 90.7185 70.0977C91.5935 70.0977 92.2634 69.6328 92.4685 68.8125H93.6443C93.4529 70.1387 92.3728 71.1504 90.7185 71.1504ZM98.0707 71.1504C95.9242 71.1504 94.598 69.6328 94.598 67.3496C94.598 65.0664 95.9379 63.4805 97.9613 63.4805C99.5199 63.4805 101.161 64.4375 101.161 67.1855V67.6777H95.7738C95.8285 69.25 96.7445 70.1113 98.0707 70.1113C98.9594 70.1113 99.5199 69.7285 99.7934 69.2637H101.051C100.696 70.3848 99.602 71.1504 98.0707 71.1504ZM95.7875 66.6797H99.9711C99.9711 65.4355 99.1781 64.5195 97.9613 64.5195C96.6762 64.5195 95.8559 65.5312 95.7875 66.6797ZM106.681 65.5039C106.517 64.8887 106.052 64.4785 105.177 64.4785C104.261 64.4785 103.605 64.9707 103.605 65.5996C103.605 66.0918 104.001 66.4336 104.876 66.6387L105.983 66.9121C107.31 67.2266 107.966 67.8828 107.966 68.9219C107.966 70.207 106.913 71.1504 105.054 71.1504C103.386 71.1504 102.388 70.4121 102.196 69.0586H103.427C103.564 69.7832 104.097 70.125 105.026 70.125C106.079 70.125 106.749 69.6875 106.749 68.9902C106.749 68.4707 106.38 68.1152 105.532 67.9238L104.411 67.6641C103.112 67.3633 102.429 66.6523 102.429 65.668C102.429 64.3965 103.536 63.4805 105.177 63.4805C106.708 63.4805 107.679 64.3008 107.829 65.5039H106.681ZM113.486 65.5039C113.322 64.8887 112.857 64.4785 111.982 64.4785C111.066 64.4785 110.41 64.9707 110.41 65.5996C110.41 66.0918 110.806 66.4336 111.681 66.6387L112.789 66.9121C114.115 67.2266 114.771 67.8828 114.771 68.9219C114.771 70.207 113.718 71.1504 111.859 71.1504C110.191 71.1504 109.193 70.4121 109.002 69.0586H110.232C110.369 69.7832 110.902 70.125 111.832 70.125C112.884 70.125 113.554 69.6875 113.554 68.9902C113.554 68.4707 113.185 68.1152 112.338 67.9238L111.216 67.6641C109.918 67.3633 109.234 66.6523 109.234 65.668C109.234 64.3965 110.341 63.4805 111.982 63.4805C113.513 63.4805 114.484 64.3008 114.634 65.5039H113.486ZM116.162 71V63.5762H117.338V71H116.162ZM116.75 62.3457C116.299 62.3457 115.93 62.0039 115.93 61.5664C115.93 61.1289 116.299 60.7871 116.75 60.7871C117.201 60.7871 117.584 61.1289 117.584 61.5664C117.584 62.0039 117.201 62.3457 116.75 62.3457ZM120.247 66.543V71H119.071V63.5762H120.206V64.7383H120.302C120.657 63.9863 121.341 63.4805 122.476 63.4805C123.979 63.4805 124.978 64.3965 124.978 66.2832V71H123.802V66.3652C123.802 65.2168 123.173 64.5332 122.12 64.5332C121.04 64.5332 120.247 65.2578 120.247 66.543ZM129.732 73.9395C127.941 73.9395 126.724 73.1602 126.588 71.7793H127.818C127.982 72.5312 128.679 72.9141 129.732 72.9141C131.004 72.9141 131.783 72.3672 131.783 71.1367V69.6328H131.687C131.441 70.043 130.963 70.8906 129.527 70.8906C127.722 70.8906 126.369 69.5234 126.369 67.1855C126.369 64.9023 127.681 63.4805 129.541 63.4805C130.976 63.4805 131.441 64.3555 131.714 64.752H131.81V63.5762H132.959V71.2051C132.959 73.1191 131.537 73.9395 129.732 73.9395ZM129.691 69.8379C131.045 69.8379 131.81 68.8672 131.81 67.2266C131.81 65.6406 131.072 64.5332 129.691 64.5332C128.269 64.5332 127.558 65.7363 127.558 67.2266C127.558 68.7715 128.283 69.8379 129.691 69.8379ZM137.276 67.2266C137.262 69.8105 136.565 71.957 135.307 73.7891H134.268C135.198 72.4355 136.059 69.6602 136.059 67.2266C136.059 64.793 135.198 62.0312 134.268 60.6777H135.307C136.565 62.4961 137.262 64.6426 137.276 67.2266ZM149.29 59.9531V72.1074H148.251V59.9531H149.29ZM146.843 60.2129V71.4922H145.817V65.5859H144.259C144.142 67.9512 143.138 69.4277 141.634 69.4277C140.048 69.4277 139.022 67.7871 139.022 65.2031C139.022 62.6191 140.048 60.9785 141.634 60.9785C143.11 60.9785 144.108 62.4072 144.245 64.6973H145.817V60.2129H146.843ZM141.634 61.9902C140.649 61.9902 140.02 63.2207 140.034 65.2031C140.02 67.1719 140.649 68.416 141.634 68.4023C142.618 68.416 143.247 67.1719 143.247 65.2031C143.247 63.2207 142.618 61.9902 141.634 61.9902ZM164.596 59.9531V72.1074H163.57V65.7363H161.779V71.4785H160.795V60.2266H161.779V64.8477H163.57V59.9531H164.596ZM159.209 61.4434V62.332H155.723V68.1836C157.398 68.1768 158.56 68.1152 159.906 67.8418L160.002 68.7441C158.539 69.0449 157.295 69.0996 155.436 69.0996H154.656V61.4434H159.209ZM175.667 59.9668V63.9727H177.499V64.875H175.667V69.0723H174.6V59.9668H175.667ZM173.438 61.457V62.332H166.192V61.457H169.282V59.9668H170.348V61.457H173.438ZM169.815 63.002C171.552 63.002 172.727 63.8906 172.741 65.2715C172.727 66.6387 171.552 67.5137 169.815 67.5137C168.065 67.5137 166.876 66.6387 166.889 65.2715C166.876 63.8906 168.065 63.002 169.815 63.002ZM169.815 63.8496C168.667 63.8496 167.901 64.4102 167.915 65.2715C167.901 66.1328 168.667 66.6797 169.815 66.666C170.95 66.6797 171.716 66.1328 171.729 65.2715C171.716 64.4102 170.95 63.8496 169.815 63.8496ZM176.227 70.9453V71.8477H168.065V68.3477H169.118V70.9453H176.227ZM191.574 59.9531V66.2422H190.494V63.084H187.787V62.1953H190.494V59.9531H191.574ZM191.574 66.8574V69.7559H184.779V71.082H192.025V71.9434H183.727V68.9355H190.508V67.7188H183.699V66.8574H191.574ZM185.641 61.498C185.627 63.0977 186.885 64.5469 188.662 65.1348L188.088 65.9688C186.741 65.4902 185.668 64.5332 185.135 63.3027C184.615 64.6904 183.515 65.75 182.072 66.2695L181.484 65.4082C183.316 64.8066 184.574 63.2754 184.588 61.498V60.3496H185.641V61.498ZM203.534 59.9531V67.1582H202.454V65.2441H199.61V66.2832H194.032V60.8828H199.61V61.9355H202.454V59.9531H203.534ZM195.098 61.7578V65.4082H198.557V61.7578H195.098ZM199.501 67.5137C202.03 67.5137 203.575 68.3477 203.575 69.8105C203.575 71.2598 202.03 72.0801 199.501 72.0801C196.971 72.0801 195.426 71.2598 195.426 69.8105C195.426 68.3477 196.971 67.5137 199.501 67.5137ZM199.501 68.3477C197.641 68.3613 196.479 68.8945 196.493 69.8105C196.479 70.6855 197.641 71.2324 199.501 71.2324C201.36 71.2324 202.509 70.6855 202.509 69.8105C202.509 68.8945 201.36 68.3613 199.501 68.3477ZM199.61 64.3418H202.454V62.8242H199.61V64.3418ZM210.954 60.7461C213.497 60.7461 215.398 62.0723 215.398 64.082C215.398 66.1055 213.497 67.4316 210.954 67.418C208.411 67.4316 206.511 66.1055 206.511 64.082C206.511 62.0723 208.411 60.7461 210.954 60.7461ZM210.954 61.6211C208.999 61.6074 207.523 62.6328 207.536 64.082C207.523 65.5586 208.999 66.543 210.954 66.543C212.896 66.543 214.359 65.5586 214.359 64.082C214.359 62.6328 212.896 61.6074 210.954 61.6211ZM216.546 69.5918V70.4941H205.417V69.5918H216.546ZM228.506 69.7012V70.6035H217.377V69.7012H222.381V67.4043H218.771V63.6582H226.045V61.7441H218.744V60.8555H227.098V64.5332H219.838V66.5156H227.385V67.4043H223.434V69.7012H228.506ZM238.247 60.1035C240.954 60.1035 242.54 60.8555 242.54 62.209C242.54 63.4873 241.153 64.2188 238.753 64.3145V65.2441H243.784V66.1191H232.71V65.2441H237.7V64.3145C235.328 64.2119 233.941 63.4805 233.941 62.209C233.941 60.8555 235.54 60.1035 238.247 60.1035ZM238.247 60.9238C236.224 60.9375 235.048 61.4023 235.062 62.209C235.048 63.043 236.224 63.4941 238.247 63.5078C240.257 63.4941 241.447 63.043 241.447 62.209C241.447 61.4023 240.257 60.9375 238.247 60.9238ZM242.363 67.1445V69.8652H235.144V71.123H242.732V71.9707H234.077V69.0723H241.31V67.9785H234.05V67.1445H242.363ZM254.076 59.9531V64.7383H256.113V65.668H254.076V72.1074H253.01V59.9531H254.076ZM246.242 60.9922V64.2051H249.797V60.9922H250.863V69.1953H245.176V60.9922H246.242ZM246.242 68.293H249.797V65.0664H246.242V68.293ZM267.745 66.6934V67.582H256.616V66.6934H267.745ZM266.569 70.9453V71.8477H258.092V68.5391H259.172V70.9453H266.569ZM266.309 60.377V63.3711H259.131V64.7246H266.569V65.5723H258.065V62.5645H265.229V61.2383H258.024V60.377H266.309ZM282.039 59.9668V68.1973H280.959V64.2871H278.293V63.3848H280.959V59.9668H282.039ZM278.238 60.9238C278.224 64.041 276.146 66.2832 272.646 67.4043L272.168 66.543C275.073 65.6475 276.864 63.959 277.09 61.7988H272.769V60.9238H278.238ZM278.621 67.6914C278.621 69.4688 280.562 70.7949 282.709 71.1777L282.258 72.0391C280.467 71.6904 278.819 70.7539 278.101 69.332C277.356 70.7607 275.688 71.7109 273.877 72.0664L273.439 71.2188C275.586 70.8496 277.555 69.4824 277.568 67.6914V67.1309H278.621V67.6914ZM43.5664 83.3652V84.2402H32.4922V83.3652H43.5664ZM42.3359 87.9453V88.8477H33.9277V85.3066H35.0078V87.9453H42.3359ZM38.0293 77.3906C40.6406 77.377 42.3223 78.2793 42.3223 79.7969C42.3223 81.3145 40.6406 82.2168 38.0293 82.2168C35.3906 82.2168 33.7227 81.3145 33.7227 79.7969C33.7227 78.2793 35.3906 77.377 38.0293 77.3906ZM38.0293 78.252C36.0742 78.252 34.8164 78.8398 34.8301 79.7969C34.8164 80.7539 36.0742 81.3418 38.0293 81.3418C39.9707 81.3418 41.2285 80.7539 41.2285 79.7969C41.2285 78.8398 39.9707 78.252 38.0293 78.252ZM46.3932 85.1426C46.4069 83.3105 46.9674 82.75 47.9108 82.1758C48.4713 81.834 48.9088 81.2871 48.9088 80.5215C48.9088 79.5918 48.1842 79.0039 47.2819 79.0039C46.5026 79.0039 45.7233 79.4688 45.6412 80.5898H44.3971C44.4655 78.9355 45.7233 77.9648 47.2819 77.9648C48.9909 77.9648 50.112 79.0723 50.112 80.5762C50.112 81.6426 49.6061 82.3945 48.7584 82.9141C47.9108 83.4336 47.5963 83.9531 47.569 85.1426V85.2109H46.3932V85.1426ZM47.0221 88.082C46.5436 88.082 46.1334 87.6855 46.1471 87.1934C46.1334 86.7148 46.5436 86.3184 47.0221 86.3184C47.5006 86.3184 47.8971 86.7148 47.8971 87.1934C47.8971 87.6855 47.5006 88.082 47.0221 88.082Z" fill="#434343"/>
<path d="M45.3125 23.4062V24.6094H39.75V27.3281H38.2812V24.6094H32.5V23.4062H45.3125ZM43.6562 16.9844V21.9531H34.1406V16.9844H43.6562ZM35.5938 18.1562V20.7812H42.1875V18.1562H35.5938ZM43.8906 28.8281V30.0312H34.0938V26H35.5781V28.8281H43.8906ZM58.1994 16.3281V30.3281H56.7775V16.3281H58.1994ZM55.3556 16.625V29.625H53.9494V22.5H51.7775V21.2812H53.9494V16.625H55.3556ZM50.4025 20.2344C50.4025 22.625 51.3713 25.0156 53.34 26.1562L52.4494 27.25C51.1134 26.4531 50.1916 25.0391 49.715 23.3438C49.2072 25.1719 48.2541 26.7266 46.8869 27.5781L45.9806 26.4688C47.965 25.2656 48.9806 22.7188 48.9806 20.2344V19.1094H46.4025V17.9062H52.8088V19.1094H50.4025V20.2344ZM68.3794 17.6875V29H66.645V19.4062H66.5825L63.8794 21.1719V19.5312L66.6919 17.6875H68.3794Z" fill="#434343"/>
</g>
<defs>
<filter id="filter0_d_194_4462" x="87" y="174" width="292" height="93" filterUnits="userSpaceOnUse" color-interpolation-filters="sRGB">
<feFlood flood-opacity="0" result="BackgroundImageFix"/>
<feColorMatrix in="SourceAlpha" type="matrix" values="0 0 0 0 0 0 0 0 0 0 0 0 0 0 0 0 0 0 127 0" result="hardAlpha"/>
<feOffset dy="2"/>
<feGaussianBlur stdDeviation="2"/>
<feComposite in2="hardAlpha" operator="out"/>
<feColorMatrix type="matrix" values="0 0 0 0 0 0 0 0 0 0 0 0 0 0 0 0 0 0 0.25 0"/>
<feBlend mode="normal" in2="BackgroundImageFix" result="effect1_dropShadow_194_4462"/>
<feBlend mode="normal" in="SourceGraphic" in2="effect1_dropShadow_194_4462" result="shape"/>
</filter>
<filter id="filter1_d_194_4462" x="12" y="0" width="292" height="166" filterUnits="userSpaceOnUse" color-interpolation-filters="sRGB">
<feFlood flood-opacity="0" result="BackgroundImageFix"/>
<feColorMatrix in="SourceAlpha" type="matrix" values="0 0 0 0 0 0 0 0 0 0 0 0 0 0 0 0 0 0 127 0" result="hardAlpha"/>
<feOffset dy="2"/>
<feGaussianBlur stdDeviation="2"/>
<feComposite in2="hardAlpha" operator="out"/>
<feColorMatrix type="matrix" values="0 0 0 0 0 0 0 0 0 0 0 0 0 0 0 0 0 0 0.25 0"/>
<feBlend mode="normal" in2="BackgroundImageFix" result="effect1_dropShadow_194_4462"/>
<feBlend mode="normal" in="SourceGraphic" in2="effect1_dropShadow_194_4462" result="shape"/>
</filter>
</defs>
</svg>
