<svg width="24" height="24" viewBox="0 0 24 24" fill="none" xmlns="http://www.w3.org/2000/svg">
<path d="M12 20.4736C7.32666 20.4736 3.5332 16.6802 3.5332 12.0068C3.5332 7.3335 7.32666 3.54004 12 3.54004C16.6733 3.54004 20.4668 7.3335 20.4668 12.0068C20.4668 16.6802 16.6733 20.4736 12 20.4736ZM12 19.0625C15.9014 19.0625 19.0557 15.9082 19.0557 12.0068C19.0557 8.10547 15.9014 4.95117 12 4.95117C8.09863 4.95117 4.94434 8.10547 4.94434 12.0068C4.94434 15.9082 8.09863 19.0625 12 19.0625ZM9.10303 14.5635C8.70459 14.5635 8.53857 14.0903 8.75439 13.7334L11.5518 9.00195C11.751 8.66162 12.2324 8.64502 12.4482 9.00195L15.229 13.7334C15.4614 14.1235 15.2871 14.5635 14.8887 14.5635H9.10303Z" fill="black"/>
</svg>
