<svg width="24" height="24" viewBox="0 0 24 24" fill="none" xmlns="http://www.w3.org/2000/svg">
<path d="M12 3.52637C7.32666 3.52637 3.5332 7.31982 3.5332 11.9932C3.5332 16.6665 7.32666 20.46 12 20.46C16.6733 20.46 20.4668 16.6665 20.4668 11.9932C20.4668 7.31982 16.6733 3.52637 12 3.52637ZM12 4.9375C15.9014 4.9375 19.0557 8.0918 19.0557 11.9932C19.0557 15.8945 15.9014 19.0488 12 19.0488C8.09863 19.0488 4.94434 15.8945 4.94434 11.9932C4.94434 8.0918 8.09863 4.9375 12 4.9375ZM9.10303 9.43652C8.70459 9.43652 8.53857 9.90967 8.75439 10.2666L11.5518 14.998C11.751 15.3384 12.2324 15.355 12.4482 14.998L15.229 10.2666C15.4614 9.87646 15.2871 9.43652 14.8887 9.43652H9.10303Z" fill="black"/>
</svg>
