<svg width="28" height="26" viewBox="0 0 28 26" fill="none" xmlns="http://www.w3.org/2000/svg">
<path d="M5.12069 26C5.4569 26 5.7069 25.8361 6.11207 25.4757L9.22414 22.772H15.0517C17.6207 22.772 19 21.4284 19 19.028V12.7523C19 10.3518 17.6207 9 15.0517 9H3.94828C1.37931 9 0 10.3436 0 12.7523V19.028C0 21.4366 1.37931 22.772 3.94828 22.772H4.35345V25.1561C4.35345 25.6641 4.62931 26 5.12069 26Z" fill="#1C81E0" fill-opacity="0.5"/>
<path d="M22.8793 0C22.5431 0 22.2931 0.163855 21.8879 0.524338L18.7759 3.22795H12.9483C10.3793 3.22795 9 4.57157 9 6.97205V13.2477C9 15.6482 10.3793 17 12.9483 17H24.0517C26.6207 17 28 15.6564 28 13.2477V6.97205C28 4.56337 26.6207 3.22795 24.0517 3.22795H23.6466V0.843855C23.6466 0.335903 23.3707 0 22.8793 0Z" fill="#FEE500" fill-opacity="0.5"/>
</svg>
